<svg width="267" height="80" fill="none" aria-label="Node.js logo" xmlns="http://www.w3.org/2000/svg" class="prefix__fill-[#333333] prefix__dark:fill-white prefix__index-module__YC5Knq__nodejsLogo"><mask id="prefix__a" style="mask-type:luminance" maskUnits="userSpaceOnUse" x="0" y="0" width="267" height="80"><path d="M267 0H0v79.378h267V0z" fill="#000"/></mask><g mask="url(#prefix__a)"><path d="M234.983 78.755a4.012 4.012 0 01-1.933-.51l-6.121-3.658c-.921-.51-.46-.695-.184-.787 1.242-.417 1.472-.51 2.761-1.25.138-.093.322-.047.46.046l4.694 2.825c.184.092.414.092.552 0l18.363-10.698c.183-.092.277-.277.277-.509V42.867c0-.232-.094-.417-.277-.51l-18.363-10.65c-.184-.093-.414-.093-.552 0l-18.362 10.65c-.184.093-.276.324-.276.51v21.347c0 .186.092.417.276.51l5.016 2.917c2.715 1.39 4.418-.232 4.418-1.852v-21.07c0-.278.23-.556.553-.556h2.347c.276 0 .552.232.552.556v21.07c0 3.658-1.979 5.788-5.431 5.788-1.058 0-1.886 0-4.234-1.157l-4.832-2.779a3.914 3.914 0 01-1.933-3.38V42.912c0-1.39.737-2.686 1.933-3.38l18.363-10.697c1.15-.649 2.715-.649 3.865 0l18.363 10.696a3.913 3.913 0 011.932 3.381V64.26c0 1.39-.736 2.686-1.932 3.381l-18.363 10.697c-.552.232-1.242.417-1.932.417z" fill="#5FA04E"/><path d="M240.69 64.075c-8.055 0-9.712-3.705-9.712-6.854 0-.277.23-.555.552-.555h2.393c.277 0 .507.185.507.463.368 2.454 1.426 3.658 6.305 3.658 3.866 0 5.523-.88 5.523-2.963 0-1.204-.462-2.084-6.49-2.686-5.016-.51-8.146-1.621-8.146-5.65 0-3.75 3.13-5.974 8.376-5.974 5.892 0 8.791 2.038 9.159 6.484a.757.757 0 01-.137.416c-.094.093-.231.186-.371.186h-2.439a.54.54 0 01-.505-.417c-.553-2.547-1.98-3.38-5.753-3.38-4.234 0-4.74 1.481-4.74 2.593 0 1.342.598 1.76 6.305 2.5 5.66.741 8.33 1.806 8.33 5.788 0 4.076-3.36 6.391-9.157 6.391zM267.2 41.662c0 1.945-1.612 3.566-3.546 3.566a3.556 3.556 0 01-3.543-3.566 3.556 3.556 0 013.543-3.565c1.888 0 3.546 1.574 3.546 3.565zm-6.536 0c0 1.667 1.335 3.01 2.944 3.01 1.658 0 2.993-1.39 2.993-3.01 0-1.667-1.335-2.963-2.993-2.963a2.975 2.975 0 00-2.944 2.963zm1.657-1.991h1.381c.46 0 1.381 0 1.381 1.065 0 .74-.462.88-.739.973.554.046.599.416.645.926.046.324.094.88.185 1.065h-.83c0-.186-.137-1.204-.137-1.25-.045-.232-.137-.325-.413-.325h-.691v1.62h-.782v-4.074zm.736 1.76h.597c.508 0 .599-.37.599-.556 0-.556-.368-.556-.599-.556h-.642v1.112h.045z" fill="#5FA04E"/><path clip-rule="evenodd" d="M43.674 41.954c0-.834-.46-1.62-1.197-2.038L23.01 28.572c-.322-.185-.69-.278-1.058-.324h-.184c-.368 0-.736.139-1.059.324l-19.512 11.3A2.378 2.378 0 000 41.953l.046 30.378c0 .416.23.833.598 1.018.368.232.829.232 1.15 0l11.598-6.668a2.358 2.358 0 001.197-2.037V50.428c0-.833.46-1.62 1.196-2.037l4.924-2.871a2.218 2.218 0 011.197-.325c.414 0 .828.093 1.15.325l4.925 2.87a2.358 2.358 0 011.196 2.038v14.217c0 .833.46 1.62 1.197 2.037l11.505 6.668c.368.232.828.232 1.197 0 .368-.185.598-.602.598-1.018V41.954zM137.465.139c-.369-.185-.829-.185-1.151 0-.368.231-.598.602-.598 1.019v30.1a.89.89 0 01-.415.74.875.875 0 01-.828 0l-4.878-2.825a2.36 2.36 0 00-2.347 0L107.735 40.52a2.359 2.359 0 00-1.196 2.037V65.2c0 .834.46 1.621 1.196 2.038l19.513 11.345a2.36 2.36 0 002.347 0l19.513-11.345a2.359 2.359 0 001.196-2.038V8.752c0-.88-.46-1.667-1.196-2.084L137.465.138zm-1.795 57.606c0 .232-.092.417-.276.51l-6.674 3.89a.678.678 0 01-.598 0l-6.673-3.89c-.184-.093-.276-.325-.276-.51v-7.78c0-.231.092-.416.276-.509l6.673-3.89a.678.678 0 01.598 0l6.674 3.89c.184.093.276.324.276.51v7.78zM202.398 49.78c.737-.417 1.151-1.204 1.151-2.038v-5.51c0-.834-.46-1.62-1.151-2.037l-19.375-11.3a2.358 2.358 0 00-2.347 0l-19.512 11.346a2.358 2.358 0 00-1.197 2.037v22.645c0 .833.46 1.62 1.197 2.037l19.374 11.114c.737.416 1.611.416 2.301 0l11.736-6.576c.368-.185.598-.602.598-1.019 0-.416-.23-.833-.598-1.018L174.97 58.115c-.368-.231-.598-.602-.598-1.018v-7.085c0-.417.23-.834.598-1.02l6.121-3.518a1.117 1.117 0 011.196 0l6.121 3.519c.368.231.598.602.598 1.019v5.556c0 .417.23.834.599 1.02.368.23.828.23 1.196 0l11.597-6.808z"/><path fill-rule="evenodd" clip-rule="evenodd" d="M181.551 48.715a.417.417 0 01.461 0l3.727 2.177c.138.092.23.231.23.417v4.352a.487.487 0 01-.23.417l-3.727 2.177a.417.417 0 01-.461 0l-3.727-2.177a.487.487 0 01-.23-.417V51.31c0-.185.092-.325.23-.417l3.727-2.177z" fill="#5FA04E"/><path d="M76.301 28.988a2.36 2.36 0 00-2.347 0L54.579 40.241c-.736.417-1.15 1.204-1.15 2.038V64.83c0 .834.46 1.62 1.15 2.038L73.954 78.12a2.36 2.36 0 002.347 0l19.375-11.252c.736-.417 1.15-1.204 1.15-2.038V42.279c0-.834-.46-1.621-1.15-2.038L76.3 28.988z" fill="url(#prefix__paint0_linear_1803_3458)"/><path d="M95.722 40.241L76.255 28.988a3.176 3.176 0 00-.598-.231L53.843 66.312c.184.231.414.417.644.556L73.954 78.12c.553.324 1.197.417 1.795.232l20.48-37.694a1.44 1.44 0 00-.507-.417z" fill="url(#prefix__paint1_linear_1803_3458)"/><path d="M95.722 66.867a2.63 2.63 0 001.15-1.482L75.566 28.71c-.552-.093-1.15-.047-1.656.278l-19.33 11.206 20.848 38.25c.276-.047.598-.14.875-.278l19.42-11.3z" fill="url(#prefix__paint2_linear_1803_3458)"/></g><defs><linearGradient id="prefix__paint0_linear_1803_3458" x1="83.018" y1="37.369" x2="65.325" y2="73.241" gradientUnits="userSpaceOnUse"><stop stop-color="#3F873F"/><stop offset=".33" stop-color="#3F8B3D"/><stop offset=".637" stop-color="#3E9638"/><stop offset=".934" stop-color="#3DA92E"/><stop offset="1" stop-color="#3DAE2B"/></linearGradient><linearGradient id="prefix__paint1_linear_1803_3458" x1="72.183" y1="56.188" x2="121.552" y2="19.937" gradientUnits="userSpaceOnUse"><stop offset=".138" stop-color="#3F873F"/><stop offset=".402" stop-color="#52A044"/><stop offset=".713" stop-color="#64B749"/><stop offset=".908" stop-color="#6ABF4B"/></linearGradient><linearGradient id="prefix__paint2_linear_1803_3458" x1="52.719" y1="53.546" x2="97.551" y2="53.546" gradientUnits="userSpaceOnUse"><stop offset=".092" stop-color="#6ABF4B"/><stop offset=".287" stop-color="#64B749"/><stop offset=".598" stop-color="#52A044"/><stop offset=".862" stop-color="#3F873F"/></linearGradient></defs></svg>